<svg width="19" height="18" viewBox="0 0 19 18" fill="none" xmlns="http://www.w3.org/2000/svg">
<g id="flat-color-icons:google">
<g clip-path="url(#clip0_2311_5409)">
<g id="Group 2212">
<path id="Vector" d="M17.8711 6.9778H17.1835V6.94237H9.49985V10.3573H14.3247C13.6208 12.3452 11.7294 13.7723 9.49985 13.7723C6.67099 13.7723 4.37743 11.4787 4.37743 8.64984C4.37743 5.82099 6.67099 3.52743 9.49985 3.52743C10.8056 3.52743 11.9936 4.02003 12.8981 4.82468L15.3129 2.40989C13.7882 0.988847 11.7486 0.112488 9.49985 0.112488C4.78509 0.112488 0.962494 3.93509 0.962494 8.64984C0.962494 13.3646 4.78509 17.1872 9.49985 17.1872C14.2146 17.1872 18.0372 13.3646 18.0372 8.64984C18.0372 8.07741 17.9783 7.51864 17.8711 6.9778Z" fill="#FFC107"/>
<path id="Vector_2" d="M1.94628 4.67613L4.75123 6.7332C5.5102 4.85413 7.34829 3.52743 9.49928 3.52743C10.8051 3.52743 11.993 4.02003 12.8976 4.82468L15.3124 2.40989C13.7876 0.988847 11.748 0.112488 9.49928 0.112488C6.22008 0.112488 3.37629 1.96381 1.94628 4.67613Z" fill="#FF3D00"/>
<path id="Vector_3" d="M9.49998 17.1875C11.7052 17.1875 13.7089 16.3436 15.2238 14.9712L12.5815 12.7352C11.6956 13.409 10.613 13.7734 9.49998 13.7725C7.27941 13.7725 5.39394 12.3566 4.68363 10.3806L1.8996 12.5257C3.31253 15.2905 6.18194 17.1875 9.49998 17.1875Z" fill="#4CAF50"/>
<path id="Vector_4" d="M17.8711 6.97781H17.1835V6.94238H9.49984V10.3573H14.3247C13.988 11.3034 13.3815 12.1302 12.5801 12.7354L12.5814 12.7346L15.2237 14.9705C15.0367 15.1404 18.0372 12.9185 18.0372 8.64985C18.0372 8.07742 17.9783 7.51865 17.8711 6.97781Z" fill="#1976D2"/>
</g>
</g>
</g>
<defs>
<clipPath id="clip0_2311_5409">
<rect x="0.962494" y="0.112488" width="17.075" height="17.075" rx="8.5375" fill="white"/>
</clipPath>
</defs>
</svg>
